<?xml version="1.0" standalone="no"?>
<!DOCTYPE svg PUBLIC "-//W3C//DTD SVG 20010904//EN"
 "http://www.w3.org/TR/2001/REC-SVG-20010904/DTD/svg10.dtd">
<svg version="1.0" xmlns="http://www.w3.org/2000/svg"
 width="282.000000pt" height="231.000000pt" viewBox="0 0 282.000000 231.000000"
 preserveAspectRatio="xMidYMid meet">

<g transform="translate(0.000000,231.000000) scale(0.100000,-0.100000)"
fill="#000000" stroke="none">
<path d="M834 2087 c-153 -122 -299 -307 -364 -464 -55 -132 -72 -215 -73
-353 -1 -149 14 -216 77 -345 82 -167 215 -297 391 -385 157 -77 280 -101 429
-81 171 23 313 90 426 201 76 74 104 135 123 262 20 137 -23 295 -100 369
l-35 34 7 -45 c9 -61 -17 -180 -57 -258 -135 -268 -524 -352 -772 -167 -80 60
-138 133 -192 240 -84 169 -104 335 -65 516 39 176 110 315 236 463 31 37 55
69 53 72 -2 2 -40 -25 -84 -59z"/>
<path d="M1471 1969 c-149 -38 -314 -143 -365 -232 -104 -179 -93 -450 23
-561 l26 -25 -3 42 c-5 60 23 170 61 241 87 163 254 256 462 256 99 -1 152
-12 235 -53 207 -102 357 -399 337 -670 -11 -154 -86 -356 -180 -483 -24 -33
-72 -90 -107 -127 -34 -37 -59 -67 -55 -67 11 0 132 87 193 138 76 65 198 214
251 307 24 42 60 123 79 178 32 91 36 116 40 235 5 153 -9 230 -64 350 -60
132 -175 268 -296 350 -67 46 -202 109 -273 127 -86 22 -270 19 -364 -6z"/>
<path d="M1495 1609 c-33 -10 -82 -36 -110 -56 l-50 -38 86 -6 c217 -17 383
-153 445 -364 26 -89 24 -241 -5 -324 -62 -179 -240 -329 -461 -388 -100 -27
-291 -25 -400 5 -166 46 -307 125 -435 244 -41 38 -75 66 -75 61 0 -15 66
-106 124 -171 155 -173 315 -281 516 -348 78 -26 98 -28 240 -28 175 -1 219 9
351 75 258 129 448 405 466 680 10 153 -35 327 -116 451 -85 129 -152 180
-278 213 -81 21 -224 19 -298 -6z"/>
</g>
</svg>
