<svg xmlns="http://www.w3.org/2000/svg" width="600" height="300" viewBox="0 0 600 300">
  <!-- Фон сделан прозрачным -->
  
  <!-- Логотип SPARQ -->
  <g transform="translate(150, 50)">
    <!-- Буква S -->
    <path d="M20,0 C8,0 0,8 0,20 C0,32 8,40 20,40 L40,40 C45,40 50,45 50,50 C50,55 45,60 40,60 L0,60 L0,80 L40,80 C52,80 70,72 70,50 C70,28 52,20 40,20 L20,20 C15,20 10,15 10,10 C10,5 15,0 20,0 Z" fill="#4a90e2"/>
    
    <!-- Буква P -->
    <path d="M80,0 L80,80 L100,80 L100,50 L120,50 C132,50 140,42 140,30 L140,20 C140,8 132,0 120,0 Z M100,20 L120,20 C125,20 120,25 120,30 L120,40 C120,45 125,40 120,40 L100,40 Z" fill="#4a90e2"/>
    
    <!-- Буква A -->
    <path d="M150,0 L170,0 L200,80 L180,80 L175,65 L145,65 L140,80 L120,80 Z M150,20 L150,20 L150,45 L170,45 L160,20 Z" fill="#4a90e2"/>
    
    <!-- Буква R -->
    <path d="M210,0 L210,80 L230,80 L230,50 L240,50 L260,80 L280,80 L255,45 C265,40 270,35 270,25 L270,20 C270,8 262,0 250,0 Z M230,20 L250,20 C255,20 250,25 250,30 L250,35 C250,40 255,35 250,35 L230,35 Z" fill="#4a90e2"/>
    
    <!-- Буква Q -->
    <path d="M290,20 C290,8 298,0 310,0 L330,0 C342,0 350,8 350,20 L350,60 C350,72 342,80 330,80 L310,80 C298,80 290,72 290,60 Z M310,20 L310,60 L330,60 L330,20 L310,20 Z M330,60 L345,75 L360,60 L345,45 Z" fill="#4a90e2"/>
  </g>
  
  <!-- Подзаголовок -->
  <text x="300" y="180" font-family="Arial, sans-serif" font-size="18" fill="#333" text-anchor="middle">Корпоративный мессенджер</text>
  
  <!-- Декоративные элементы -->
  <circle cx="150" cy="230" r="10" fill="#4a90e2" opacity="0.7" />
  <circle cx="450" cy="230" r="10" fill="#4a90e2" opacity="0.7" />
  <rect x="170" y="225" width="260" height="10" rx="5" fill="#4a90e2" opacity="0.5" />
</svg>